<svg width="64" height="64" viewBox="0 0 64 64" fill="none" xmlns="http://www.w3.org/2000/svg">
<g clip-path="url(#clip0_17_58)">
<rect width="64" height="64" rx="11" fill="#160C0C"/>
<path d="M20.5731 43.93C20.4731 43.11 20.3931 42.22 20.3331 41.26C20.2931 40.28 20.2731 39.37 20.2731 38.53C20.2731 37.19 20.3131 35.91 20.3931 34.69C20.4931 33.45 20.6031 32.16 20.7231 30.82C20.8631 29.46 21.0131 27.99 21.1731 26.41C21.3331 24.81 21.4731 22.97 21.5931 20.89C21.8531 20.89 22.2231 20.97 22.7031 21.13C23.2031 21.27 23.7031 21.44 24.2031 21.64C24.7031 21.84 25.1431 22.05 25.5231 22.27C25.9031 22.47 26.1231 22.64 26.1831 22.78C25.8431 23.56 25.5331 24.59 25.2531 25.87C24.9931 27.13 24.7731 28.51 24.5931 30.01C24.4131 31.51 24.2731 33.05 24.1731 34.63C24.0731 36.21 24.0231 37.69 24.0231 39.07C24.0231 39.71 24.0331 40.34 24.0531 40.96C24.0731 41.58 24.1031 42.15 24.1431 42.67C24.5631 42.05 25.0431 41.17 25.5831 40.03C26.1431 38.87 26.7131 37.58 27.2931 36.16C27.8931 34.74 28.4831 33.26 29.0631 31.72C29.6631 30.16 30.2131 28.68 30.7131 27.28C31.2131 25.86 31.6331 24.59 31.9731 23.47C32.3331 22.33 32.5831 21.47 32.7231 20.89C32.9831 20.89 33.3631 20.97 33.8631 21.13C34.3831 21.27 34.8831 21.44 35.3631 21.64C35.8631 21.84 36.3031 22.05 36.6831 22.27C37.0631 22.47 37.2731 22.64 37.3131 22.78C36.9731 23.56 36.6631 24.59 36.3831 25.87C36.1231 27.13 35.9031 28.51 35.7231 30.01C35.5431 31.51 35.4031 33.05 35.3031 34.63C35.2031 36.21 35.1531 37.69 35.1531 39.07C35.1531 39.65 35.1531 40.23 35.1531 40.81C35.1731 41.37 35.2031 41.88 35.2431 42.34C35.8831 40.68 36.5431 39.04 37.2231 37.42C37.9231 35.78 38.6131 34.22 39.2931 32.74C39.9731 31.24 40.6331 29.85 41.2731 28.57C41.9131 27.27 42.5031 26.12 43.0431 25.12C43.5831 24.1 44.0531 23.26 44.4531 22.6C44.8531 21.94 45.1631 21.5 45.3831 21.28C45.8431 21.34 46.3131 21.51 46.7931 21.79C47.2931 22.05 47.7331 22.39 48.1131 22.81C47.5331 23.27 46.8731 24.03 46.1331 25.09C45.3931 26.13 44.6331 27.34 43.8531 28.72C43.0731 30.1 42.2831 31.57 41.4831 33.13C40.7031 34.69 39.9731 36.21 39.2931 37.69C38.6131 39.17 38.0031 40.55 37.4631 41.83C36.9431 43.11 36.5431 44.14 36.2631 44.92C35.7431 45.16 35.2331 45.28 34.7331 45.28C34.0931 45.2 33.4831 45.04 32.9031 44.8C32.3431 44.56 31.9431 44.27 31.7031 43.93C31.6431 43.61 31.5931 43.24 31.5531 42.82C31.5131 42.38 31.4831 41.95 31.4631 41.53C31.4431 41.11 31.4231 40.71 31.4031 40.33C31.4031 39.93 31.4031 39.59 31.4031 39.31C31.4031 37.53 31.4731 35.72 31.6131 33.88C31.7531 32.02 31.9231 30.03 32.1231 27.91C31.6631 29.27 31.1531 30.73 30.5931 32.29C30.0331 33.85 29.4431 35.4 28.8231 36.94C28.2231 38.46 27.6031 39.92 26.9631 41.32C26.3431 42.7 25.7331 43.9 25.1331 44.92C24.6131 45.16 24.1031 45.28 23.6031 45.28C22.9631 45.2 22.3531 45.04 21.7731 44.8C21.2131 44.56 20.8131 44.27 20.5731 43.93Z" fill="#FF4D50"/>
</g>
<defs>
<clipPath id="clip0_17_58">
<rect width="64" height="64" rx="11" fill="white"/>
</clipPath>
</defs>
</svg>
