<svg width="124" height="56" viewBox="0 0 124 56" fill="none" xmlns="http://www.w3.org/2000/svg">
<path d="M0.527783 40.488C0.367782 39.176 0.239782 37.752 0.143783 36.216C0.0797825 34.648 0.0477824 33.192 0.0477824 31.848C0.0477824 29.704 0.111782 27.656 0.239782 25.704C0.399782 23.72 0.575783 21.656 0.767782 19.512C0.991782 17.336 1.23178 14.984 1.48778 12.456C1.74378 9.896 1.96778 6.952 2.15978 3.624C2.57578 3.624 3.16778 3.752 3.93578 4.008C4.73578 4.232 5.53578 4.504 6.33578 4.824C7.13578 5.144 7.83978 5.48 8.44778 5.832C9.05578 6.152 9.40778 6.424 9.50378 6.648C8.95978 7.896 8.46378 9.544 8.01578 11.592C7.59978 13.608 7.24778 15.816 6.95978 18.216C6.67178 20.616 6.44778 23.08 6.28778 25.608C6.12778 28.136 6.04778 30.504 6.04778 32.712C6.04778 33.736 6.06378 34.744 6.09578 35.736C6.12778 36.728 6.17578 37.64 6.23978 38.472C6.91178 37.48 7.67978 36.072 8.54378 34.248C9.43978 32.392 10.3518 30.328 11.2798 28.056C12.2398 25.784 13.1838 23.416 14.1118 20.952C15.0718 18.456 15.9518 16.088 16.7518 13.848C17.5518 11.576 18.2238 9.544 18.7678 7.752C19.3438 5.928 19.7438 4.552 19.9678 3.624C20.3838 3.624 20.9918 3.752 21.7918 4.008C22.6238 4.232 23.4238 4.504 24.1918 4.824C24.9918 5.144 25.6958 5.48 26.3038 5.832C26.9118 6.152 27.2478 6.424 27.3118 6.648C26.7678 7.896 26.2718 9.544 25.8238 11.592C25.4078 13.608 25.0558 15.816 24.7678 18.216C24.4798 20.616 24.2558 23.08 24.0958 25.608C23.9358 28.136 23.8558 30.504 23.8558 32.712C23.8558 33.64 23.8558 34.568 23.8558 35.496C23.8878 36.392 23.9358 37.208 23.9998 37.944C25.0238 35.288 26.0798 32.664 27.1678 30.072C28.2878 27.448 29.3918 24.952 30.4798 22.584C31.5678 20.184 32.6238 17.96 33.6478 15.912C34.6718 13.832 35.6158 11.992 36.4798 10.392C37.3438 8.76 38.0958 7.416 38.7358 6.36C39.3758 5.304 39.8718 4.6 40.2238 4.248C40.9598 4.344 41.7118 4.616 42.4798 5.064C43.2798 5.48 43.9838 6.024 44.5918 6.696C43.6638 7.432 42.6078 8.648 41.4238 10.344C40.2398 12.008 39.0238 13.944 37.7758 16.152C36.5278 18.36 35.2638 20.712 33.9838 23.208C32.7358 25.704 31.5678 28.136 30.4798 30.504C29.3918 32.872 28.4158 35.08 27.5518 37.128C26.7198 39.176 26.0798 40.824 25.6318 42.072C24.7998 42.456 23.9838 42.648 23.1838 42.648C22.1598 42.52 21.1838 42.264 20.2558 41.88C19.3598 41.496 18.7198 41.032 18.3358 40.488C18.2398 39.976 18.1598 39.384 18.0958 38.712C18.0318 38.008 17.9838 37.32 17.9518 36.648C17.9198 35.976 17.8878 35.336 17.8558 34.728C17.8558 34.088 17.8558 33.544 17.8558 33.096C17.8558 30.248 17.9678 27.352 18.1918 24.408C18.4158 21.432 18.6878 18.248 19.0078 14.856C18.2718 17.032 17.4558 19.368 16.5598 21.864C15.6638 24.36 14.7198 26.84 13.7278 29.304C12.7678 31.736 11.7758 34.072 10.7518 36.312C9.75978 38.52 8.78378 40.44 7.82378 42.072C6.99178 42.456 6.17578 42.648 5.37578 42.648C4.35178 42.52 3.37578 42.264 2.44778 41.88C1.55178 41.496 0.911783 41.032 0.527783 40.488ZM40.2738 35.918C40.2738 35.642 40.2891 35.3047 40.3198 34.906C40.3811 34.4767 40.4731 33.9247 40.5958 33.25C40.7184 32.5447 40.8718 31.7013 41.0558 30.72C41.2704 29.7387 41.5311 28.558 41.8378 27.178C41.8991 26.8713 42.0371 26.3807 42.2518 25.706C42.4664 25.0313 42.7424 24.326 43.0798 23.59C43.4478 22.8233 43.8771 22.0873 44.3678 21.382C44.8891 20.6767 45.5024 20.1553 46.2078 19.818C46.7291 19.9407 47.4191 20.2627 48.2778 20.784C49.1364 21.2747 49.8724 21.9647 50.4858 22.854C49.7804 23.6513 49.1824 24.4487 48.6918 25.246C48.2318 26.0433 47.8024 26.8713 47.4038 27.73C47.0358 28.5887 46.6831 29.478 46.3458 30.398C46.0391 31.318 45.6864 32.284 45.2878 33.296C44.9504 34.1547 44.6438 35.044 44.3678 35.964C44.0918 36.8533 43.9384 37.6353 43.9078 38.31C43.9078 38.862 43.8924 39.2453 43.8618 39.46C43.8618 39.7053 43.7851 39.828 43.6318 39.828C43.5091 39.828 43.2638 39.7513 42.8958 39.598C42.5278 39.4447 42.1444 39.2147 41.7458 38.908C41.3778 38.5707 41.0404 38.1567 40.7338 37.666C40.4271 37.1753 40.2738 36.5927 40.2738 35.918ZM49.0598 15.954C49.0598 15.77 49.1058 15.494 49.1978 15.126C49.0444 14.9727 48.9064 14.7427 48.7838 14.436C48.6918 14.1293 48.6458 13.8533 48.6458 13.608C48.6458 13.332 48.6764 12.964 48.7378 12.504C48.8298 12.0133 48.9371 11.492 49.0598 10.94C49.1824 10.388 49.3358 9.82067 49.5198 9.238C49.7038 8.62466 49.8878 8.07266 50.0718 7.582C50.4398 7.582 50.8844 7.68933 51.4058 7.904C51.9578 8.088 52.5098 8.34867 53.0618 8.686C53.6138 8.99266 54.1198 9.34533 54.5798 9.744C55.0398 10.112 55.3924 10.4647 55.6378 10.802C55.3004 11.1393 54.8558 11.6147 54.3038 12.228C53.7518 12.8107 53.2151 13.4393 52.6938 14.114C52.1724 14.758 51.6971 15.3713 51.2678 15.954C50.8384 16.5367 50.5624 16.9507 50.4398 17.196C50.0718 17.1347 49.7498 16.9813 49.4738 16.736C49.1978 16.46 49.0598 16.1993 49.0598 15.954ZM51.5129 36.056C51.5129 34.7067 51.8349 32.8207 52.4789 30.398C53.1229 27.9447 54.0275 25.0927 55.1929 21.842C57.0942 16.6593 58.8729 12.3507 60.5289 8.916C62.2155 5.45067 63.8562 2.752 65.4509 0.819998C65.8189 0.881331 66.2635 1.03466 66.7849 1.28C67.3369 1.52533 67.8735 1.80133 68.3949 2.108C68.9162 2.384 69.3762 2.67533 69.7749 2.982C70.2042 3.28866 70.4802 3.534 70.6029 3.718C68.2109 6.53933 66.1102 9.57533 64.3009 12.826C62.4915 16.0767 60.8355 19.8027 59.3329 24.004C58.0449 27.6227 57.0635 30.8887 56.3889 33.802C55.7142 36.6847 55.3769 39.092 55.3769 41.024C55.3769 41.5453 55.3769 41.8673 55.3769 41.99C55.3769 42.1127 55.3922 42.2353 55.4229 42.358C54.9935 42.2967 54.6255 42.1893 54.3189 42.036C54.0122 41.8827 53.8129 41.6987 53.7209 41.484C53.6595 41.3307 53.4909 41.1007 53.2149 40.794C52.9389 40.518 52.6935 40.3033 52.4789 40.15C52.2029 39.966 51.9729 39.4907 51.7889 38.724C51.6049 37.9267 51.5129 37.0373 51.5129 36.056ZM62.844 36.056C62.844 34.7067 63.166 32.8207 63.81 30.398C64.454 27.9447 65.3586 25.0927 66.524 21.842C68.4253 16.6593 70.204 12.3507 71.86 8.916C73.5466 5.45067 75.1873 2.752 76.782 0.819998C77.15 0.881331 77.5946 1.03466 78.116 1.28C78.668 1.52533 79.2046 1.80133 79.726 2.108C80.2473 2.384 80.7073 2.67533 81.106 2.982C81.5353 3.28866 81.8113 3.534 81.934 3.718C79.542 6.53933 77.4413 9.57533 75.632 12.826C73.8226 16.0767 72.1666 19.8027 70.664 24.004C69.376 27.6227 68.3946 30.8887 67.72 33.802C67.0453 36.6847 66.708 39.092 66.708 41.024C66.708 41.5453 66.708 41.8673 66.708 41.99C66.708 42.1127 66.7233 42.2353 66.754 42.358C66.3246 42.2967 65.9566 42.1893 65.65 42.036C65.3433 41.8827 65.144 41.6987 65.052 41.484C64.9906 41.3307 64.822 41.1007 64.546 40.794C64.27 40.518 64.0246 40.3033 63.81 40.15C63.534 39.966 63.304 39.4907 63.12 38.724C62.936 37.9267 62.844 37.0373 62.844 36.056ZM74.2671 35.918C74.2671 35.642 74.2824 35.3047 74.3131 34.906C74.3744 34.4767 74.4664 33.9247 74.5891 33.25C74.7117 32.5447 74.8651 31.7013 75.0491 30.72C75.2637 29.7387 75.5244 28.558 75.8311 27.178C75.8924 26.8713 76.0304 26.3807 76.2451 25.706C76.4597 25.0313 76.7357 24.326 77.0731 23.59C77.4411 22.8233 77.8704 22.0873 78.3611 21.382C78.8824 20.6767 79.4957 20.1553 80.2011 19.818C80.7224 19.9407 81.4124 20.2627 82.2711 20.784C83.1297 21.2747 83.8657 21.9647 84.4791 22.854C83.7737 23.6513 83.1757 24.4487 82.6851 25.246C82.2251 26.0433 81.7957 26.8713 81.3971 27.73C81.0291 28.5887 80.6764 29.478 80.3391 30.398C80.0324 31.318 79.6797 32.284 79.2811 33.296C78.9437 34.1547 78.6371 35.044 78.3611 35.964C78.0851 36.8533 77.9317 37.6353 77.9011 38.31C77.9011 38.862 77.8857 39.2453 77.8551 39.46C77.8551 39.7053 77.7784 39.828 77.6251 39.828C77.5024 39.828 77.2571 39.7513 76.8891 39.598C76.5211 39.4447 76.1377 39.2147 75.7391 38.908C75.3711 38.5707 75.0337 38.1567 74.7271 37.666C74.4204 37.1753 74.2671 36.5927 74.2671 35.918ZM83.0531 15.954C83.0531 15.77 83.0991 15.494 83.1911 15.126C83.0377 14.9727 82.8997 14.7427 82.7771 14.436C82.6851 14.1293 82.6391 13.8533 82.6391 13.608C82.6391 13.332 82.6697 12.964 82.7311 12.504C82.8231 12.0133 82.9304 11.492 83.0531 10.94C83.1757 10.388 83.3291 9.82067 83.5131 9.238C83.6971 8.62466 83.8811 8.07266 84.0651 7.582C84.4331 7.582 84.8777 7.68933 85.3991 7.904C85.9511 8.088 86.5031 8.34867 87.0551 8.686C87.6071 8.99266 88.1131 9.34533 88.5731 9.744C89.0331 10.112 89.3857 10.4647 89.6311 10.802C89.2937 11.1393 88.8491 11.6147 88.2971 12.228C87.7451 12.8107 87.2084 13.4393 86.6871 14.114C86.1657 14.758 85.6904 15.3713 85.2611 15.954C84.8317 16.5367 84.5557 16.9507 84.4331 17.196C84.0651 17.1347 83.7431 16.9813 83.4671 16.736C83.1911 16.46 83.0531 16.1993 83.0531 15.954ZM87.7677 52.294C87.001 51.9873 86.541 51.4047 86.3877 50.546C86.265 49.718 85.7437 49.0433 84.8237 48.522C85.069 46.958 85.345 45.3787 85.6517 43.784C85.9584 42.1893 86.3417 40.38 86.8017 38.356C87.2924 36.3013 87.8904 33.9247 88.5957 31.226C89.3317 28.4967 90.2517 25.2 91.3557 21.336C90.3437 21.336 89.5464 21.3513 88.9637 21.382C88.381 21.4127 87.8137 21.474 87.2617 21.566C87.139 21.4433 87.0317 21.2747 86.9397 21.06C86.8784 20.8453 86.8477 20.646 86.8477 20.462C87.1544 20.3393 87.783 20.186 88.7337 20.002C89.6844 19.7873 90.727 19.6033 91.8617 19.45C92.5977 17.1193 93.441 15.034 94.3917 13.194C95.3424 11.3233 96.3697 9.72867 97.4737 8.41C98.5777 7.09133 99.743 6.07933 100.97 5.374C102.196 4.66867 103.438 4.316 104.696 4.316C105.064 4.316 105.416 4.34667 105.754 4.408C106.091 4.43866 106.352 4.454 106.536 4.454C106.812 4.23933 107.18 4.05533 107.64 3.902C108.1 3.718 108.498 3.626 108.836 3.626C109.204 3.626 109.679 3.82533 110.262 4.224C110.016 4.65333 109.756 5.236 109.48 5.972C109.204 6.708 108.974 7.42867 108.79 8.134C108.023 10.4033 107.21 11.8753 106.352 12.55C106.014 12.55 105.83 12.1053 105.8 11.216C105.769 10.572 105.677 9.94333 105.524 9.33C105.401 9.054 105.309 8.80867 105.248 8.594C105.217 8.37933 105.202 8.10333 105.202 7.766C105.202 7.582 105.217 7.36733 105.248 7.122C105.278 6.846 105.34 6.40133 105.432 5.788C104.91 5.788 104.328 6.11 103.684 6.754C103.07 7.398 102.411 8.318 101.706 9.514C101.031 10.6793 100.341 12.0747 99.6357 13.7C98.9304 15.3253 98.2557 17.1193 97.6117 19.082L101.476 18.944C101.629 19.0973 101.752 19.45 101.844 20.002C101.966 20.5233 102.043 21.0753 102.074 21.658L97.0137 21.382C95.8484 24.8473 94.7597 28.1593 93.7477 31.318C92.7357 34.4767 91.831 37.39 91.0337 40.058C90.2364 42.726 89.5464 45.1027 88.9637 47.188C88.4117 49.304 88.013 51.006 87.7677 52.294ZM118.716 31.87C118.011 34.1087 117.306 36.148 116.6 37.988C115.895 39.828 115.144 41.5147 114.346 43.048C113.549 44.612 112.69 46.038 111.77 47.326C110.85 48.6447 109.838 49.8867 108.734 51.052C107.324 52.524 105.867 53.6433 104.364 54.41C102.862 55.2073 101.359 55.606 99.8564 55.606C99.0897 55.606 98.323 55.514 97.5564 55.33C96.8204 55.1767 96.1304 54.9467 95.4864 54.64C94.8117 54.364 94.229 54.0267 93.7384 53.628C93.217 53.26 92.849 52.8613 92.6344 52.432C92.6344 52.064 92.849 51.742 93.2784 51.466C93.6464 51.8033 93.953 52.064 94.1984 52.248C94.4437 52.432 94.689 52.5853 94.9344 52.708C95.149 52.8307 95.3944 52.9073 95.6704 52.938C95.9157 52.9687 96.207 52.984 96.5444 52.984C98.2924 52.984 99.9944 52.4627 101.65 51.42C103.337 50.408 104.916 48.9513 106.388 47.05C107.891 45.1793 109.256 42.8947 110.482 40.196C111.709 37.528 112.752 34.538 113.61 31.226C113.212 31.8393 112.721 32.5907 112.138 33.48C111.556 34.3693 110.912 35.2587 110.206 36.148C109.501 37.0067 108.765 37.7887 107.998 38.494C107.262 39.1993 106.542 39.6747 105.836 39.92C105.346 39.8893 104.824 39.782 104.272 39.598C103.751 39.4447 103.245 39.2147 102.754 38.908C102.294 38.6013 101.88 38.2333 101.512 37.804C101.144 37.3747 100.899 36.884 100.776 36.332C100.776 35.4427 100.807 34.7373 100.868 34.216C100.93 33.664 101.037 33.066 101.19 32.422C101.466 31.2567 101.865 29.938 102.386 28.466C102.938 26.994 103.567 25.5527 104.272 24.142C105.008 22.7007 105.806 21.3667 106.664 20.14C107.554 18.8827 108.474 17.9013 109.424 17.196C109.67 17.196 109.976 17.2267 110.344 17.288C110.712 17.3187 111.096 17.3953 111.494 17.518C111.893 17.6407 112.276 17.794 112.644 17.978C113.012 18.1313 113.334 18.346 113.61 18.622C113.273 18.9287 112.537 19.956 111.402 21.704C110.268 23.452 109.01 25.9667 107.63 29.248C107.477 29.5853 107.293 30.076 107.078 30.72C106.864 31.364 106.649 32.0387 106.434 32.744C106.25 33.4493 106.082 34.1393 105.928 34.814C105.775 35.4887 105.698 36.0253 105.698 36.424C105.698 36.6693 105.729 36.8533 105.79 36.976C105.882 37.0987 105.959 37.1907 106.02 37.252C106.572 37.16 107.308 36.7153 108.228 35.918C109.148 35.09 110.191 33.8173 111.356 32.1C112.092 30.996 112.767 29.9073 113.38 28.834C113.994 27.73 114.592 26.626 115.174 25.522C115.788 24.418 116.416 23.2833 117.06 22.118C117.704 20.9527 118.394 19.7567 119.13 18.53C119.529 18.53 119.958 18.576 120.418 18.668C120.878 18.76 121.323 18.8827 121.752 19.036C122.182 19.1587 122.55 19.312 122.856 19.496C123.194 19.6493 123.439 19.818 123.592 20.002C122.642 22.026 121.752 24.004 120.924 25.936C120.096 27.868 119.36 29.846 118.716 31.87Z" fill="#FF4D50"/>
</svg>
